<svg width="17" height="17" viewBox="0 0 17 17" fill="none" xmlns="http://www.w3.org/2000/svg">
<path fill-rule="evenodd" clip-rule="evenodd" d="M13.3199 10.497L15.9724 13.1396C16.6958 13.9403 16.6958 15.1415 15.9724 15.9423C15.1686 16.7431 13.963 16.7431 13.1592 15.9423L10.5067 13.2997C9.54215 13.7802 8.41686 14.1005 7.29156 14.1005C3.51379 14.1005 0.459412 11.0575 0.459412 7.2939C0.459412 3.53025 3.51379 0.487305 7.29156 0.487305C11.0693 0.487305 14.1237 3.53025 14.1237 7.2939C14.1237 8.41499 13.8022 9.53607 13.3199 10.497ZM2.06698 7.2939C2.06698 10.1767 4.39795 12.4989 7.29156 12.4989C10.1852 12.4989 12.5161 10.1767 12.5161 7.2939C12.5161 4.41111 10.1852 2.08886 7.29156 2.08886C4.39795 2.08886 2.06698 4.41111 2.06698 7.2939Z" fill="#1C1D20" fill-opacity="0.801546"/>
</svg>
