<svg width="25" height="13" viewBox="0 0 25 13" fill="none" xmlns="http://www.w3.org/2000/svg">
<path d="M24.2509 5.75907C24.2506 5.75879 24.2504 5.75846 24.2501 5.75817L19.3369 0.834095C18.9689 0.465215 18.3735 0.466588 18.0071 0.837314C17.6408 1.20799 17.6422 1.80755 18.0103 2.17647L21.309 5.48243H1.39585C0.876529 5.48243 0.455566 5.90637 0.455566 6.42936C0.455566 6.95236 0.876529 7.3763 1.39585 7.3763H21.3089L18.0103 10.6823C17.6423 11.0512 17.6409 11.6507 18.0072 12.0214C18.3736 12.3922 18.969 12.3935 19.337 12.0246L24.2501 7.10055C24.2504 7.10027 24.2506 7.09994 24.251 7.09965C24.6192 6.7295 24.6181 6.128 24.2509 5.75907Z" fill="#0872C7"/>
</svg>
