<svg width="19" height="19" viewBox="0 0 19 19" fill="none" xmlns="http://www.w3.org/2000/svg">
<path fill-rule="evenodd" clip-rule="evenodd" d="M2.6827 7.02563H16.522C18.2372 7.02563 18.8469 9.13613 18.52 10.05L16.9297 16.9617C16.691 18.006 15.8682 18.7349 14.9317 18.7349H4.27305C3.33647 18.7349 2.51375 18.006 2.27501 16.9617L0.684666 10.05C0.438585 9.32833 0.669975 7.13805 2.6827 7.02563ZM5.88905 16.0732C6.30405 16.0732 6.63825 15.7432 6.63825 15.3335V10.7136C6.63825 10.3038 6.30405 9.9738 5.88905 9.9738C5.47404 9.9738 5.13984 10.3038 5.13984 10.7136V15.3335C5.13984 15.7432 5.47404 16.0732 5.88905 16.0732ZM10.2635 15.3335C10.2635 15.7432 9.92924 16.0732 9.51421 16.0732C9.09918 16.0732 8.76495 15.7432 8.76495 15.3335V10.7136C8.76495 10.3038 9.09918 9.9738 9.51421 9.9738C9.92924 9.9738 10.2635 10.3038 10.2635 10.7136V15.3335ZM13.1393 16.0732C13.5543 16.0732 13.8886 15.7432 13.8886 15.3335V10.7136C13.8886 10.3038 13.5543 9.9738 13.1393 9.9738C12.7243 9.9738 12.3901 10.3038 12.3901 10.7136V15.3335C12.3901 15.7432 12.7243 16.0732 13.1393 16.0732Z" fill="#1C1D20" fill-opacity="0.801546"/>
<path d="M9.60474 2.00316C11.2638 2.00316 12.6799 3.27817 13.2541 5.07411H14.7476C14.0959 2.44759 12.0423 0.520508 9.60474 0.520508C7.16717 0.520508 5.11707 2.44759 4.46188 5.07411H5.9519C6.52959 3.27817 7.94564 2.00316 9.60474 2.00316Z" fill="#1C1D20" fill-opacity="0.801546"/>
</svg>
