<svg width="141" height="32" viewBox="0 0 141 32" fill="none" xmlns="http://www.w3.org/2000/svg">
<path fill-rule="evenodd" clip-rule="evenodd" d="M44.2149 27.0918H49.7409L50.9713 31.2973H53.7343L49.2662 17.1206C49.1364 16.6458 48.8125 16.4084 48.2945 16.4084H45.6613C45.1432 16.4084 44.8194 16.6458 44.6896 17.1206L40.2214 31.2973H42.9845L44.2149 27.0918ZM47.6038 19.7325L49.0929 24.8684H44.8637L46.352 19.7325L46.697 18.4586H47.2801C47.2944 18.5308 47.4023 18.9555 47.6038 19.7325Z" fill="black"/>
<path fill-rule="evenodd" clip-rule="evenodd" d="M63.2317 31.2974H66.1023L64.7643 26.6362C64.6203 25.9884 64.361 25.4849 63.9865 25.1257C63.6547 24.7893 63.2371 24.5501 62.7791 24.4341V24.3257C63.7718 24.1991 64.4839 23.8299 64.9154 23.218C65.3469 22.6061 65.5627 21.7246 65.5627 20.5736C65.5627 18.9194 65.1705 17.7792 64.3861 17.1531C63.6017 16.5269 62.2671 16.2139 60.3824 16.2139C58.0514 16.2139 56.2452 16.2787 54.9639 16.4085V31.2974H57.6415V25.3187L60.3183 25.3401C61.196 25.3401 61.7715 25.7864 62.0448 26.6789L63.2317 31.2974ZM60.3175 23.1207H57.6407V18.4373H60.3183C61.2847 18.4373 61.944 18.5955 62.2964 18.912C62.6488 19.2285 62.825 19.8399 62.825 20.7461C62.8271 21.6524 62.6506 22.2711 62.2956 22.6024C61.9406 22.9337 61.2812 23.1064 60.3175 23.1207Z" fill="black"/>
<path d="M72.0169 24.5885H70.5491C70.652 25.0709 70.7027 25.563 70.7002 26.0562V31.2974H68.0021V16.4086H70.7002V20.7897C70.7049 21.3682 70.6542 21.9458 70.5491 22.5146H72.0169L76.0965 16.407H79.032L75.0173 22.407C74.7436 22.8281 74.4089 23.2062 74.0242 23.529V23.5939C74.4764 23.9552 74.8696 24.3847 75.1898 24.867L79.3129 31.2974H76.2904L72.0169 24.5885Z" fill="black"/>
<path fill-rule="evenodd" clip-rule="evenodd" d="M83.1117 27.0918H88.6378L89.8682 31.2973H92.6312L88.167 17.1174C88.0377 16.6426 87.7139 16.4053 87.1953 16.4053H84.5581C84.0401 16.4053 83.7162 16.6426 83.5865 17.1174L79.1183 31.2973H81.8813L83.1117 27.0918ZM86.5006 19.7325L87.9897 24.8684H83.7589L85.2489 19.7325L85.5938 18.4586H86.177C86.1907 18.5308 86.2986 18.9555 86.5006 19.7325Z" fill="black"/>
<path fill-rule="evenodd" clip-rule="evenodd" d="M93.8608 16.4085V31.2974C95.832 31.4287 97.6886 31.4941 99.4304 31.4936C101.692 31.4936 103.272 30.9397 104.168 29.832C105.065 28.7243 105.513 26.7314 105.513 23.8533C105.517 20.9758 105.068 18.9832 104.168 17.8755C103.268 16.7677 101.689 16.2139 99.4304 16.2139C97.6891 16.2139 95.8326 16.2787 93.8608 16.4085ZM96.5589 29.1856V18.4792C96.8348 18.4803 97.2858 18.4771 97.912 18.4697C98.5381 18.4623 99.0455 18.4586 99.4343 18.4586C100.654 18.4586 101.498 18.8471 101.966 19.6241C102.434 20.4011 102.668 21.8111 102.668 23.8541C102.668 25.8977 102.438 27.3042 101.977 28.0739C101.517 28.8435 100.668 29.2283 99.4304 29.2283C98.6391 29.2283 97.682 29.214 96.5589 29.1856Z" fill="black"/>
<path d="M117.303 29.1208L117.432 31.1709C116.122 31.2864 113.935 31.3439 110.87 31.3434C109.891 31.3434 109.118 31.0918 108.549 30.5885C107.981 30.0853 107.691 29.3946 107.679 28.5163V19.1914C107.693 18.3137 107.983 17.6229 108.549 17.1192C109.116 16.6154 109.89 16.3635 110.87 16.3635C113.935 16.3635 116.123 16.4213 117.432 16.5368L117.303 18.6083H111.475C111.086 18.6083 110.808 18.7024 110.644 18.8892C110.479 19.0759 110.395 19.3995 110.395 19.86V22.4712H116.504V24.5426H110.395V27.8659C110.395 28.3264 110.478 28.65 110.644 28.8367C110.808 29.0242 111.086 29.1176 111.475 29.1176L117.303 29.1208Z" fill="black"/>
<path d="M131.355 16.4084H134.139C134.815 16.4084 135.168 16.7608 135.197 17.4656L135.802 31.2973H133.146L132.65 18.5852H132.24L129.671 28.4916C129.513 29.095 129.138 29.397 128.548 29.3975H126.477C125.873 29.3981 125.492 29.0971 125.333 28.4947L122.722 18.5883H122.355L121.88 31.3005H119.247L119.808 17.4656C119.837 16.7613 120.189 16.409 120.866 16.4084H123.672C124.262 16.4084 124.629 16.7107 124.772 17.3152L126.888 25.3859C126.917 25.4861 127.068 26.1624 127.342 27.4147H127.665C127.823 26.5807 127.975 25.8973 128.119 25.3646L130.234 17.3144C130.391 16.7104 130.764 16.4084 131.355 16.4084Z" fill="black"/>
<path d="M140.982 31.2973H138.284V16.4084H140.982V31.2973Z" fill="black"/>
<path d="M16.0536 14.9843L13.8706 18.7095C13.0967 20.0282 12.3234 21.347 11.5506 22.6657C10.7066 24.1042 9.86264 25.5429 9.01864 26.982C8.30652 28.1952 7.5944 29.4103 6.88228 30.6272C6.74302 30.8646 6.49615 31.2903 6.10053 31.2903H0.349755C0.0506636 31.2903 -0.132905 30.9952 0.117128 30.6209C0.413054 30.1177 0.707925 29.6139 1.00174 29.1096C1.6168 28.0636 2.23239 27.017 2.84851 25.9699C3.53426 24.8031 4.21763 23.6355 4.89863 22.4671C5.53162 21.3857 6.16647 20.3044 6.80316 19.223C7.51633 18.0055 8.22898 16.7878 8.9411 15.5698C9.62685 14.3972 10.3126 13.2243 10.9983 12.0511C11.6799 10.8907 12.3619 9.73016 13.0445 8.56966C13.5517 7.70404 14.0541 6.83446 14.5605 5.96805C15.2442 4.80017 15.9207 3.62833 16.6178 2.46916C16.8828 2.02843 16.6352 2.44384 17.4153 1.13512C17.4672 1.04594 17.563 0.991535 17.6662 0.992694H17.9494C18.0565 0.993163 18.1553 1.05039 18.209 1.14303C18.9606 2.45492 18.8712 2.2935 18.9741 2.46995C19.6862 3.68689 20.3983 4.90356 21.1105 6.11997C21.5356 6.84475 21.9608 7.56953 22.386 8.29431C23.2468 9.7655 24.108 11.2367 24.9694 12.7079C25.7242 13.9944 26.4796 15.2807 27.2355 16.5668C27.8622 17.635 28.4878 18.7037 29.1123 19.7729C29.7902 20.9287 30.4688 22.0844 31.1482 23.2402C31.8466 24.4307 32.5442 25.6221 33.2411 26.8142C33.9563 28.0343 34.6721 29.2544 35.3885 30.4745C35.6259 30.8314 35.5467 31.2911 35.0775 31.2911H29.1875L29.125 31.2832C29.0994 31.2747 29.0728 31.2699 29.0459 31.2689C27.791 31.2689 26.5358 31.2721 25.2803 31.2784C25.2424 31.2798 25.2046 31.2835 25.1672 31.2895H25.1379H12.5017C12.1947 31.2895 12.1061 30.9833 12.2857 30.6723C12.7889 29.802 13.2977 28.9316 13.8049 28.0612L15.8487 24.5544C16.3503 23.6956 16.8514 22.8364 17.352 21.9765L17.4367 21.8317C17.4793 21.758 17.5581 21.7127 17.6432 21.713H18.0032C18.0879 21.7128 18.1663 21.7578 18.209 21.8309L18.2549 21.9101C18.6252 22.5304 18.9852 23.1571 19.3491 23.7822C19.787 24.5354 20.2245 25.2884 20.6618 26.0412C20.6877 26.0939 20.7433 26.1253 20.8019 26.1203C22.5141 26.1161 24.2261 26.1134 25.9379 26.1124C25.9695 26.1124 26.0012 26.1068 26.051 26.1021L17.7967 12.0322" fill="black"/>
</svg>
